<svg width="33" height="33" viewBox="0 0 33 33" fill="none" xmlns="http://www.w3.org/2000/svg">
<path d="M28.875 3.71243L28.2562 3.09368C26.9156 1.75305 24.6469 1.75305 23.3062 3.09368L22.0687 4.33118C19.9031 3.29993 17.4281 2.88743 14.85 3.1968C8.76562 3.91868 3.91875 8.76555 3.19687 14.8499C2.26875 22.9968 8.55937 29.9062 16.5 29.9062C18.7687 29.9062 20.9344 29.3906 22.7906 28.3593L25.0594 30.6281C25.1625 30.7312 25.2656 30.8343 25.3687 30.8343H25.4719H25.575C25.6781 30.8343 25.6781 30.8343 25.7812 30.8343C25.8844 30.8343 25.8844 30.8343 25.9875 30.8343H26.0906H26.1937C26.2969 30.8343 26.4 30.7312 26.5031 30.6281C26.6062 30.5249 26.7094 30.4218 26.7094 30.3187V30.2156V30.1124V30.0093V25.1624C28.6687 22.7906 29.8031 19.7999 29.8031 16.6031C29.8031 14.0249 29.0812 11.7562 27.8437 9.69368L28.875 8.66243C30.2156 7.3218 30.2156 5.05305 28.875 3.71243ZM26.8125 17.5312H27.8437C27.5344 20.9343 25.6781 23.9249 22.9969 25.7812C22.5844 26.0906 22.1719 26.2968 21.7594 26.5031C20.5219 27.1218 19.0781 27.6374 17.6344 27.7406V26.7093C17.6344 26.1937 17.1187 25.6781 16.6031 25.6781C16.0875 25.6781 15.5719 26.1937 15.5719 26.7093V27.7406C10.1062 27.2249 5.77499 22.8937 5.25937 17.4281H6.29062C6.80624 17.4281 7.32187 16.9124 7.32187 16.3968C7.32187 15.8812 6.80624 15.3656 6.29062 15.3656H5.15625C5.67187 10.0031 10.0031 5.6718 15.4687 5.15618V6.18743C15.4687 6.70305 15.9844 7.21868 16.5 7.21868C17.0156 7.21868 17.5312 6.70305 17.5312 6.18743V5.15618C22.9969 5.6718 27.3281 10.0031 27.8437 15.4687H26.8125C26.2969 15.4687 25.7812 15.9843 25.7812 16.4999C25.7812 17.0156 26.2969 17.5312 26.8125 17.5312Z" fill="#6933DC"/>
<path d="M16.5 7.21868V3.09368C14.5406 3.09368 12.5813 3.50618 10.9313 4.33118L9.69375 3.09368C8.35312 1.75305 6.08437 1.75305 4.74375 3.09368L4.125 3.71243C2.78438 5.05305 2.78438 7.3218 4.125 8.66243L5.05313 9.59055C3.81563 11.6531 3.09375 13.9218 3.09375 16.4999C3.09375 19.6968 4.22813 22.6874 6.1875 25.0593V29.9062C6.1875 30.0093 6.1875 30.1124 6.1875 30.2156V30.3187C6.1875 30.3187 6.1875 30.3187 6.1875 30.4218C6.1875 30.5249 6.29062 30.6281 6.39375 30.7312C6.49687 30.8343 6.6 30.8343 6.70312 30.9374C6.70312 30.9374 6.70312 30.9374 6.80625 30.9374H6.90937C7.0125 30.9374 7.11562 30.9374 7.21875 30.9374C7.32188 30.9374 7.425 30.9374 7.52813 30.9374H7.63125C7.63125 30.9374 7.63125 30.9374 7.73438 30.9374C7.8375 30.9374 7.94063 30.8343 8.04375 30.7312L10.3125 28.4624C12.1687 29.4937 14.3344 30.0093 16.6031 30.0093V25.8843C16.0875 25.8843 15.5719 26.3999 15.5719 26.9156V27.9468C14.025 27.8437 12.6844 27.4312 11.4469 26.7093C11.0344 26.5031 10.6219 26.1937 10.2094 25.9874C7.52812 24.1312 5.67187 21.1406 5.3625 17.7374H6.39375C6.90937 17.7374 7.425 17.2218 7.425 16.7062C7.425 16.1906 6.90937 15.6749 6.39375 15.6749H5.15625C5.67188 10.0031 10.0031 5.6718 15.4688 5.15618V6.18743C15.4688 6.70305 15.9844 7.21868 16.5 7.21868Z" fill="#6933DC"/>
</svg>
